<svg xmlns="http://www.w3.org/2000/svg" viewBox="0 0 64 64">
  <defs>
    <linearGradient id="bg" x1="8" y1="6" x2="56" y2="58" gradientUnits="userSpaceOnUse">
      <stop offset="0%" stop-color="#0f172a"/>
      <stop offset="100%" stop-color="#1e293b"/>
    </linearGradient>
    <linearGradient id="edge" x1="14" y1="14" x2="50" y2="44" gradientUnits="userSpaceOnUse">
      <stop offset="0%" stop-color="#38bdf8"/>
      <stop offset="100%" stop-color="#22c55e"/>
    </linearGradient>
    <radialGradient id="glow" cx="22" cy="16" r="34" gradientUnits="userSpaceOnUse">
      <stop offset="0%" stop-color="#93c5fd" stop-opacity="0.36"/>
      <stop offset="100%" stop-color="#ffffff" stop-opacity="0"/>
    </radialGradient>
  </defs>

  <rect x="4" y="4" width="56" height="56" rx="14" fill="#0b1220"/>
  <rect x="7" y="7" width="50" height="50" rx="12" fill="url(#bg)"/>
  <rect x="7" y="7" width="50" height="50" rx="12" fill="url(#glow)"/>

  <path d="M16 19L30 14L45 22L40 38L21 43L16 19Z" fill="none" stroke="url(#edge)" stroke-width="3.2" stroke-linecap="round" stroke-linejoin="round"/>
  <path d="M30 14L40 38M16 19L45 22" fill="none" stroke="#f8fafc" stroke-opacity="0.22" stroke-width="2.2" stroke-linecap="round"/>

  <path d="M26.2 15.2L31.8 13.7L29 18.1Z" fill="#38bdf8"/>
  <path d="M41.7 34.2L39.2 39.5L36.7 35.2Z" fill="#22c55e"/>

  <circle cx="16" cy="19" r="3.1" fill="#e2e8f0"/>
  <circle cx="30" cy="14" r="3.1" fill="#facc15"/>
  <circle cx="45" cy="22" r="3.1" fill="#e2e8f0"/>
  <circle cx="40" cy="38" r="3.1" fill="#e2e8f0"/>
  <circle cx="21" cy="43" r="3.1" fill="#e2e8f0"/>

  <circle cx="47" cy="47" r="8.5" fill="#0f172a" stroke="#94a3b8" stroke-width="1.4"/>
  <path d="M44.7 42.8L52 47L44.7 51.2Z" fill="#f8fafc"/>
</svg>
